<?xml version="1.0" encoding="UTF-8" standalone="no"?>
<!-- Created with Inkscape (http://www.inkscape.org/) -->

<svg
   xmlns:dc="http://purl.org/dc/elements/1.1/"
   xmlns:cc="http://creativecommons.org/ns#"
   xmlns:rdf="http://www.w3.org/1999/02/22-rdf-syntax-ns#"
   xmlns:svg="http://www.w3.org/2000/svg"
   xmlns="http://www.w3.org/2000/svg"
   xmlns:sodipodi="http://sodipodi.sourceforge.net/DTD/sodipodi-0.dtd"
   xmlns:inkscape="http://www.inkscape.org/namespaces/inkscape"
   width="400"
   height="300"
   viewBox="0 0 105.83333 79.375004"
   version="1.1"
   id="svg8"
   inkscape:version="0.92.4 (5da689c313, 2019-01-14)"
   sodipodi:docname="fels_icon.svg">
  <defs
     id="defs2" />
  <sodipodi:namedview
     id="base"
     pagecolor="#ffffff"
     bordercolor="#666666"
     borderopacity="1.0"
     inkscape:pageopacity="0.0"
     inkscape:pageshadow="2"
     inkscape:zoom="1.979899"
     inkscape:cx="186.74206"
     inkscape:cy="153.63262"
     inkscape:document-units="mm"
     inkscape:current-layer="g4637"
     showgrid="true"
     units="px"
     inkscape:window-width="2560"
     inkscape:window-height="1380"
     inkscape:window-x="0"
     inkscape:window-y="31"
     inkscape:window-maximized="1">
    <inkscape:grid
       type="xygrid"
       id="grid815" />
  </sodipodi:namedview>
  <metadata
     id="metadata5">
    <rdf:RDF>
      <cc:Work
         rdf:about="">
        <dc:format>image/svg+xml</dc:format>
        <dc:type
           rdf:resource="http://purl.org/dc/dcmitype/StillImage" />
        <dc:title></dc:title>
      </cc:Work>
    </rdf:RDF>
  </metadata>
  <g
     inkscape:label="Layer 1"
     inkscape:groupmode="layer"
     id="layer1"
     transform="translate(0,-217.62498)">
    <g
       id="g4637"
       transform="matrix(1.0178159,0,0,1.0178159,-0.82007886,-11.292433)"
       style="stroke-width:0.98249596">
      <g
         id="g4664"
         transform="matrix(0.58506974,0,0,0.58506974,4.5014145,112.49563)"
         style="stroke-width:1.67928016">
        <path
           style="fill:#d2cec5;fill-opacity:1;stroke:none;stroke-width:0.4443095px;stroke-linecap:butt;stroke-linejoin:miter;stroke-opacity:1"
           d="m 27.78125,281.12498 c 3.96875,-6.61458 4.91369,-3.40178 7.559524,-8.69346 2.645833,-5.29166 3.496279,-14.74106 8.787946,-18.70981 5.291668,-3.96875 4.819196,-4.34673 6.142113,-6.99256 1.322917,-2.64584 12.912253,-16.45235 16.914435,-17.6704 2.173363,-0.66145 8.220982,16.72546 12.189732,20.69421 3.96875,3.96875 6.803571,5.29167 9.449405,14.55208 2.645833,9.26042 2.456845,10.58334 7.748512,14.55209 5.291663,3.96875 6.614583,7.9375 6.614583,7.9375 l 1.32292,3.96875 -82.020837,-0.37798 z"
           id="path4603-3"
           inkscape:connector-curvature="0"
           sodipodi:nodetypes="csscsssscccc" />
        <path
           style="fill:#bdbdbd;fill-opacity:1;stroke:none;stroke-width:0.4443095px;stroke-linecap:butt;stroke-linejoin:miter;stroke-opacity:1"
           d="m 6.6145833,281.12498 c 3.9687497,-6.61458 4.9136897,-3.40178 7.5595237,-8.69345 2.645833,-5.29167 3.496279,-14.74107 8.787946,-18.70982 5.291667,-3.96875 2.173364,-0.37798 4.819197,-3.02381 1.322917,-2.64584 2.645833,-3.96875 6.614583,-5.29167 3.96875,-1.32292 6.387606,8.28536 10.356356,12.25411 3.96875,3.96875 7.389531,6.52056 9.527686,9.51425 5.597562,7.83729 1.309486,8.40489 6.601152,12.37364 5.291667,3.96875 3.941888,6.86842 3.941888,6.86842 l 1.322917,3.96875 H 1.3229167 Z"
           id="path4603"
           inkscape:connector-curvature="0"
           sodipodi:nodetypes="csscsssscccc" />
        <path
           style="fill:#b9b3b3;fill-opacity:1;stroke:none;stroke-width:0.4443095px;stroke-linecap:butt;stroke-linejoin:miter;stroke-opacity:1"
           d="m 27.78125,250.6979 c 0,0 1.322916,3.96875 5.291666,9.26041 3.96875,5.29167 5.291667,10.58334 5.291667,10.58334 0,0 -5.055431,-8.55171 -6.378348,-9.87463 -1.322917,-1.32292 -4.204985,-7.32329 -4.204985,-7.32329 v -2.64583"
           id="path4620"
           inkscape:connector-curvature="0"
           sodipodi:nodetypes="cscscc" />
        <path
           inkscape:connector-curvature="0"
           style="fill:#e9e9e9;fill-opacity:1;stroke:none;stroke-width:1.67928016;stroke-linecap:butt;stroke-linejoin:miter;stroke-miterlimit:4;stroke-dasharray:none;stroke-opacity:1"
           d="m 254.32422,43.146484 c -0.13541,0.0062 -0.26814,0.0293 -0.39649,0.06836 C 238.80138,47.818497 195,99.999975 190,110 c -3.45926,6.91852 -3.68053,9.73935 -10.10547,15.78516 C 184.70528,125.76877 193.05448,123.95914 205,115 c 20,-15 15,-30 20,-30 5,0 15,-1.3e-5 20,5 5,5.000013 25,-10 25,-10 l 2.93164,-7.330078 C 265.1868,56.570208 258.26899,42.965637 254.32422,43.146484 Z"
           transform="matrix(0.26458333,0,0,0.26458333,0,217.62498)"
           id="path4622" />
      </g>
    </g>
  </g>
</svg>
