<?xml version="1.0" encoding="UTF-8" standalone="no"?>
<!-- Created with Inkscape (http://www.inkscape.org/) -->

<svg
   xmlns:dc="http://purl.org/dc/elements/1.1/"
   xmlns:cc="http://creativecommons.org/ns#"
   xmlns:rdf="http://www.w3.org/1999/02/22-rdf-syntax-ns#"
   xmlns:svg="http://www.w3.org/2000/svg"
   xmlns="http://www.w3.org/2000/svg"
   xmlns:sodipodi="http://sodipodi.sourceforge.net/DTD/sodipodi-0.dtd"
   xmlns:inkscape="http://www.inkscape.org/namespaces/inkscape"
   width="400"
   height="300"
   viewBox="0 0 105.83333 79.375004"
   version="1.1"
   id="svg8"
   inkscape:version="0.92.4 (5da689c313, 2019-01-14)"
   sodipodi:docname="logo.svg">
  <defs
     id="defs2" />
  <sodipodi:namedview
     id="base"
     pagecolor="#ffffff"
     bordercolor="#666666"
     borderopacity="1.0"
     inkscape:pageopacity="0.0"
     inkscape:pageshadow="2"
     inkscape:zoom="2.8"
     inkscape:cx="154.04212"
     inkscape:cy="129.27596"
     inkscape:document-units="mm"
     inkscape:current-layer="layer1"
     showgrid="true"
     units="px"
     inkscape:window-width="2560"
     inkscape:window-height="1380"
     inkscape:window-x="0"
     inkscape:window-y="31"
     inkscape:window-maximized="1">
    <inkscape:grid
       type="xygrid"
       id="grid815" />
  </sodipodi:namedview>
  <metadata
     id="metadata5">
    <rdf:RDF>
      <cc:Work
         rdf:about="">
        <dc:format>image/svg+xml</dc:format>
        <dc:type
           rdf:resource="http://purl.org/dc/dcmitype/StillImage" />
        <dc:title></dc:title>
      </cc:Work>
    </rdf:RDF>
  </metadata>
  <g
     inkscape:label="Layer 1"
     inkscape:groupmode="layer"
     id="layer1"
     transform="translate(0,-217.62498)">
    <g
       aria-label="?"
       style="font-style:normal;font-weight:normal;font-size:10.58333302px;line-height:1.25;font-family:sans-serif;letter-spacing:0px;word-spacing:0px;fill:#bdbdbd;fill-opacity:1;stroke:#010101;stroke-width:0.03247356;stroke-miterlimit:4;stroke-dasharray:none;stroke-opacity:1"
       id="text4579"
       transform="matrix(8.1476531,0,0,8.1476531,-238.55701,-1760.6611)">
      <path
         d="m 35.093466,250.70823 h 1.049032 v 1.31258 h -1.049032 z m 1.018026,-0.75964 h -0.98702 v -0.79582 q 0,-0.52193 0.144694,-0.85783 0.144694,-0.33589 0.609782,-0.78031 l 0.465088,-0.45992 q 0.294556,-0.27389 0.423747,-0.51677 0.134358,-0.24288 0.134358,-0.49609 0,-0.45992 -0.341064,-0.74414 -0.335897,-0.28422 -0.894002,-0.28422 -0.408244,0 -0.873332,0.18087 -0.45992,0.18086 -0.961182,0.5271 v -0.97152 q 0.485759,-0.29456 0.981853,-0.43925 0.501261,-0.14469 1.033528,-0.14469 0.950847,0 1.524455,0.50126 0.578776,0.50126 0.578776,1.32291 0,0.39274 -0.186035,0.74931 -0.186035,0.3514 -0.651123,0.79582 l -0.454753,0.44442 q -0.242879,0.24288 -0.346232,0.3824 -0.09819,0.13436 -0.139526,0.26355 -0.03101,0.10852 -0.04651,0.26355 -0.0155,0.15503 -0.0155,0.42375 z"
         style="stroke-width:0.03247356;stroke-miterlimit:4;stroke-dasharray:none;stroke:#010101;stroke-opacity:1;fill:#bdbdbd;fill-opacity:1"
         id="path4581"
         inkscape:connector-curvature="0" />
    </g>
  </g>
</svg>
